<?xml version="1.0" encoding="UTF-8"?>
<svg id="Capa_1" data-name="Capa 1" xmlns="http://www.w3.org/2000/svg" viewBox="0 0 1000 1000">
  <path d="m982.34,217.92c-5.54,21.11-11.4,42.15-16.58,63.36-21.08,86.18-41.91,172.42-62.93,258.62-10.1,41.44-39.36,64.39-82.2,64.4-180.56.06-361.12.02-541.68.03-23.35,0-40.1,12.19-44.82,32.44-6.05,25.96,12.25,50.16,39.27,51.87,3.44.22,6.91.1,10.36.1,202.54,0,405.08,0,607.63,0,3.45,0,6.91-.08,10.36.07,13.15.6,22.19,9.45,22.43,21.84.23,12.38-8.42,22.19-21.3,23.06-9.31.63-18.7.12-28.6.87,34.35,20.09,54.45,48.82,55.23,88.97.55,28.08-9.9,52.16-30.01,71.7-40.78,39.62-105.65,35.84-143.42-7.22-31.15-35.51-39.15-112.53,32.85-153.59h-426.31c35.92,20.14,56.13,48.75,56.93,88.97.56,28.13-9.76,52.21-29.89,71.77-40.51,39.36-105.27,36.02-142.81-6.36-32.63-36.82-39.39-113.45,31.51-153.99-8.16-1.23-16.21-1.8-23.94-3.71-42.35-10.45-71.33-51.1-66.38-92.6,5.49-46.03,41.18-79.14,86.77-79.32,83.21-.34,166.43-.1,249.64-.1,98.29,0,196.58.01,294.86-.01,23.72,0,34.27-8.21,39.93-31.35,23.37-95.62,46.66-191.27,69.96-286.91.52-2.12.79-4.3,1.44-7.91h-12.12c-289.52,0-579.05,0-868.58,0-3.14,0-6.29.1-9.42-.04-13.32-.61-22.91-10.13-22.87-22.63.04-12.54,9.57-22.33,22.98-22.41,39.88-.25,79.76-.11,119.64-.12,4.99,0,9.99,0,15.94,0-8.46-35.55-16.71-70.23-25.15-105.69-23.79,0-47.29.07-70.78-.07-4.34-.03-8.86-.28-12.98-1.5-10.1-2.98-16.49-12.91-15.55-23.08.99-10.7,9.4-20.07,20.16-20.22,32.96-.46,65.94-.43,98.9-.07,10.6.12,17.52,6.99,20.4,18.87,10.1,41.74,20,83.54,29.99,125.31.43,1.81,1.06,3.57,1.94,6.45h11.8c238.65,0,477.31.09,715.96-.22,13.74-.02,24.43,3.11,31.44,15.36v15.07ZM320.96,877.57c29.65.17,53.37-23.29,53.47-52.85.09-29.3-22.97-52.81-52.14-53.16-29.66-.36-53.77,22.99-54.04,52.32-.27,29.51,23.31,53.53,52.72,53.69Zm457.32-52.72c.15,29.6,23.84,52.92,53.55,52.72,29.42-.2,52.87-24.21,52.56-53.82-.3-29.01-23.96-52.23-53.18-52.2-29.67.03-53.08,23.61-52.93,53.29Z"/>
  <path d="m315.96,356.87c-44.56,0-89.11.1-133.67-.05-18.58-.06-29.78-12.81-25.38-28.61,2.61-9.36,8.93-14.91,18.63-16.2,3.4-.45,6.89-.34,10.34-.34,87.23-.02,174.46-.02,261.69,0,19.14,0,29.64,7.95,29.68,22.38.04,14.41-10.77,22.81-29.49,22.82-43.93.02-87.86,0-131.78,0Z"/>
  <path d="m191.81,480.44c-42.66,0-85.33.01-127.99-.02-4.07,0-8.2.06-12.2-.53-10.14-1.5-17.91-10.39-18.57-20.77-.65-10.13,6.28-20.08,16.26-22.6,3.9-.99,8.06-1.23,12.11-1.24,87.52-.07,175.04-.06,262.57-.01,3.43,0,6.93.19,10.27.9,11.15,2.36,18.15,11.93,17.43,23.38-.69,10.92-8.57,19.51-19.66,20.46-7.79.67-15.67.41-23.51.42-38.9.03-77.8.01-116.7.01Z"/>
</svg>