<?xml version="1.0" encoding="UTF-8"?>
<svg id="Capa_1" data-name="Capa 1" xmlns="http://www.w3.org/2000/svg" viewBox="0 0 1000 1000">
  <defs>
    <style>
      .cls-1 {
        fill: #fff;
      }

      .cls-2 {
        opacity: .5;
      }
    </style>
  </defs>
  <circle class="cls-2" cx="500" cy="500" r="488.17"/>
  <path class="cls-1" d="m357.5,820.22c-5.12,0-10.24-1.95-14.14-5.86-7.81-7.81-7.81-20.47,0-28.29l281.19-281.19c-106.46-109.23-266.2-271.42-286.48-287.39-6.37-3.34-10.72-10.02-10.72-17.72,0-11.05,8.95-20,20-20,9.38,0,14.76,5.04,29.14,18.53,8.57,8.03,20.7,19.79,36.06,34.94,25.72,25.39,60.97,60.76,104.75,105.14,74.49,75.5,148.94,151.98,149.68,152.75,7.63,7.84,7.54,20.36-.19,28.09l-295.15,295.15c-3.91,3.91-9.02,5.86-14.14,5.86Zm-10.15-600.45h0,0Zm-.04,0h0,0Zm-.03,0h0,0Z"/>
</svg>